<svg version="1.1" id="Layer_1" xmlns="http://www.w3.org/2000/svg" xmlns:xlink="http://www.w3.org/1999/xlink" x="0px" y="0px"
	 width="100%" viewBox="0 0 575 568" enable-background="new 0 0 575 568" xml:space="preserve">
<path fill="#010101" opacity="1.000000" stroke="none" 
	d="
M1.000000,221.000000 
	C1.000000,147.349319 1.000000,74.198631 1.000000,1.023975 
	C192.608795,1.023975 384.217621,1.023975 575.913208,1.023975 
	C575.913208,190.234070 575.913208,379.468201 575.913208,568.851196 
	C384.333405,568.851196 192.666718,568.851196 1.000000,568.851196 
	C1.000000,453.115570 1.000000,337.307770 1.000000,221.000000 
M214.914490,77.092125 
	C215.100815,74.698486 214.623032,72.313141 211.687851,73.238853 
	C210.490646,73.616440 210.011169,76.269760 209.132446,78.625214 
	C209.403137,79.746017 209.673843,80.866821 209.944916,82.925949 
	C209.925751,87.734062 209.716431,92.554146 210.017975,97.342056 
	C210.095673,98.575630 211.780060,99.708015 212.726364,100.886879 
	C213.267792,100.560165 213.809204,100.233459 214.350632,99.906754 
	C214.350632,94.799744 214.350632,89.692741 215.333206,84.176018 
	C215.734238,83.609947 216.135254,83.043877 216.911575,83.242683 
	C217.531189,86.218239 218.102341,89.204964 218.784439,92.166130 
	C219.429260,94.965416 220.190643,97.737846 221.096176,101.093361 
	C222.426620,101.847313 223.832794,104.254639 225.253189,100.704010 
	C225.253189,100.704010 225.596481,100.766441 226.436554,100.900154 
	C228.182159,101.345032 229.920303,102.095840 231.675720,102.138695 
	C233.098221,102.173401 234.541489,101.356956 236.519760,100.654373 
	C237.117722,100.570099 237.715668,100.485817 238.973343,100.719215 
	C239.639969,100.522507 240.306580,100.325790 241.874573,100.365303 
	C242.924088,99.943504 243.973587,99.521713 245.417053,98.880211 
	C245.078186,98.226601 244.739334,97.572990 244.258163,96.013611 
	C244.128174,92.019867 243.998184,88.026131 244.329041,83.655403 
	C243.697189,83.220764 243.065353,82.786125 241.715790,82.051857 
	C238.488754,81.749588 235.261734,81.447319 231.693527,80.690193 
	C231.180466,81.222656 230.667389,81.755127 229.925537,82.659477 
	C229.709641,82.863564 229.459412,83.008270 228.453674,83.053703 
	C227.733002,83.017487 227.012344,82.981270 226.068146,82.199959 
	C224.692719,79.992599 223.317291,77.785248 221.567932,74.977776 
	C220.794601,75.920517 219.685013,77.079880 218.809875,78.395226 
	C217.959686,79.673073 217.349960,81.110924 215.467606,82.419838 
	C215.083176,82.479370 214.698761,82.538902 214.133545,82.212013 
	C214.133545,82.212013 214.174927,81.787399 214.564590,80.871193 
	C214.648743,79.881706 214.732895,78.892220 214.914490,77.092125 
M160.172958,101.482712 
	C161.100433,101.274857 162.027924,101.066994 163.202209,100.626266 
	C163.202209,100.626266 163.536926,100.682228 164.263443,100.822678 
	C164.871292,100.450310 165.479156,100.077950 166.936874,99.950668 
	C167.947937,99.510880 169.822861,99.098877 169.838028,98.627052 
	C170.013107,93.183411 170.086929,87.719872 169.760986,82.287224 
	C169.667267,80.724907 168.486069,78.333321 165.558884,80.901192 
	C164.371918,79.597679 162.615448,78.482414 162.110092,76.953590 
	C160.845245,73.127197 159.276901,72.928123 156.187531,76.111053 
	C155.105469,77.800034 154.023422,79.489021 152.169357,81.133629 
	C149.717422,82.405228 147.265503,83.676834 144.187119,84.885269 
	C143.558762,84.901550 142.930420,84.917839 142.178482,84.034859 
	C142.167328,81.556374 142.461777,79.019234 142.002457,76.626785 
	C141.804260,75.594337 140.047256,74.861153 138.767059,73.550034 
	C138.495453,74.030464 138.223846,74.510895 137.881668,75.918465 
	C137.813736,80.245483 137.745804,84.572510 137.003799,88.917130 
	C136.334198,88.945450 135.664597,88.973778 134.790985,88.282585 
	C134.347458,84.380264 132.138367,81.367424 128.404251,81.203575 
	C125.451111,81.073990 121.670967,82.071770 119.570496,83.999176 
	C115.475128,87.757133 116.383270,95.888329 120.460785,99.158279 
	C124.909348,102.725769 131.095703,101.350601 135.383987,95.447937 
	C136.148590,94.298225 136.913208,93.148514 137.802170,92.868019 
	C138.767563,95.437317 135.364944,100.416908 141.635162,100.445015 
	C142.150055,97.684776 142.581558,95.371460 143.367004,93.527451 
	C143.925934,93.677757 144.484879,93.828064 145.561188,94.429550 
	C146.554810,95.935394 147.400314,97.570877 148.577484,98.916107 
	C150.259720,100.838547 152.191376,101.685806 154.608505,98.754044 
	C155.366684,98.512184 156.124847,98.270325 157.152496,98.602188 
	C158.118927,99.349579 159.085373,100.096962 160.172958,101.482712 
M86.488731,268.533661 
	C85.611214,272.696167 84.733696,276.858643 83.411926,281.455170 
	C84.044594,282.225800 84.677261,282.996429 85.919823,284.209503 
	C88.621712,284.863251 91.323608,285.516998 94.392723,286.542908 
	C94.917458,286.011353 95.442192,285.479828 96.317207,284.508636 
	C96.614281,284.033966 96.911354,283.559265 97.719429,282.972015 
	C97.864410,282.321075 98.009392,281.670105 98.136292,280.118042 
	C99.190346,275.815033 98.417938,271.891937 95.804550,267.740936 
	C94.865463,267.529205 93.926369,267.317444 92.192459,267.029572 
	C91.130104,267.032379 90.067749,267.035217 88.660667,266.644440 
	C88.112137,267.104370 87.563606,267.564270 86.488731,268.533661 
M262.490723,98.970879 
	C262.720886,98.323227 262.951019,97.675575 263.371643,96.229141 
	C262.272675,94.083778 261.173737,91.938408 260.060913,89.132019 
	C260.057129,88.473564 260.053314,87.815102 260.688110,87.085632 
	C261.114594,87.050499 261.541077,87.015358 262.519287,87.029663 
	C262.476837,86.314034 262.434387,85.598404 262.178406,84.307014 
	C261.708008,83.650002 261.237610,82.992981 260.827789,81.771271 
	C260.212280,81.554443 259.596741,81.337608 258.102997,81.024918 
	C256.797028,80.991631 255.488647,80.890480 254.185532,80.936958 
	C248.930649,81.124397 246.910156,84.174210 248.290665,90.277237 
	C247.920166,91.935478 247.549667,93.593719 247.287842,95.905022 
	C250.682251,101.641075 255.341354,102.613167 262.490723,98.970879 
M518.932434,424.500000 
	C518.932434,356.719482 518.932434,288.938995 518.932434,220.857468 
	C509.828247,220.857468 501.078888,220.857468 492.136169,220.857468 
	C492.136169,313.688843 492.136169,406.271545 492.136169,499.149231 
	C501.033081,499.149231 509.778503,499.149231 518.932434,499.149231 
	C518.932434,474.415741 518.932434,449.957886 518.932434,424.500000 
M425.897186,315.503723 
	C425.897186,376.723114 425.897186,437.942474 425.897186,499.131897 
	C434.700256,499.131897 442.789978,499.131897 450.938690,499.131897 
	C450.938690,432.680939 450.938690,366.522430 450.938690,300.327728 
	C442.483643,300.327728 434.410645,300.327728 425.897186,300.327728 
	C425.897186,305.250092 425.897186,309.877777 425.897186,315.503723 
M207.500000,131.999954 
	C159.892166,131.999954 112.284340,131.999954 64.386650,131.999954 
	C64.386650,137.675674 64.386650,142.728546 64.386650,147.951019 
	C142.914978,147.951019 221.104080,147.951019 299.355042,147.951019 
	C299.355042,142.463852 299.355042,137.405975 299.355042,131.999954 
	C268.795441,131.999954 238.647720,131.999954 207.500000,131.999954 
M319.239868,443.500092 
	C319.239868,422.284943 319.239868,401.069824 319.239868,379.860901 
	C309.878143,379.860901 301.288269,379.860901 292.494568,379.860901 
	C292.494568,419.720093 292.494568,459.274139 292.494568,499.136230 
	C301.418579,499.136230 310.141327,499.136230 319.239868,499.136230 
	C319.239868,480.754578 319.239868,462.627350 319.239868,443.500092 
M368.573120,499.445801 
	C374.013153,499.445801 379.453186,499.445801 384.938965,499.445801 
	C384.938965,470.184509 384.938965,441.479767 384.938965,412.849792 
	C375.991516,412.849792 367.390808,412.849792 358.564636,412.849792 
	C358.564636,441.707977 358.564636,470.270660 358.564636,499.445679 
	C361.708801,499.445679 364.655945,499.445679 368.573120,499.445801 
M175.427216,499.445801 
	C178.699493,499.445801 181.971771,499.445801 185.370987,499.445801 
	C185.370987,490.231659 185.370987,481.666443 185.370987,472.875793 
	C176.413025,472.875793 167.718933,472.875793 158.915619,472.875793 
	C158.915619,481.778259 158.915619,490.357574 158.915619,499.445648 
	C164.237976,499.445648 169.345276,499.445648 175.427216,499.445801 
M234.604614,472.541901 
	C231.872818,472.541901 229.141022,472.541901 226.560974,472.541901 
	C226.560974,481.972931 226.560974,490.525360 226.560974,499.015198 
	C235.114014,499.015198 243.302216,499.015198 251.332611,499.015198 
	C251.332611,490.014374 251.332611,481.460663 251.332611,472.542053 
	C245.839142,472.542053 240.707962,472.542053 234.604614,472.541901 
M78.490852,78.051201 
	C76.274330,80.141869 74.057800,82.232544 70.820839,85.285713 
	C70.636887,81.855827 70.739510,79.775833 70.345535,77.794586 
	C70.072319,76.420639 69.115181,75.182701 68.463615,73.883987 
	C67.647728,75.265717 66.184715,76.621178 66.127365,78.033707 
	C65.871460,84.336662 65.898674,90.660095 66.120995,96.965645 
	C66.163612,98.174431 67.544312,99.336037 68.307693,100.519417 
	C69.011024,99.323448 70.262009,98.149612 70.311417,96.927208 
	C70.441490,93.709450 70.323692,90.597099 74.493889,88.859589 
	C76.389679,91.412910 78.495956,93.918098 80.221657,96.662582 
	C82.138115,99.710434 84.130768,101.859123 88.201683,99.705681 
	C84.583733,94.662224 81.135651,89.855583 76.497643,83.390160 
	C80.336739,80.578262 84.016167,77.883308 88.227859,74.798508 
	C83.222420,72.745094 81.164810,75.275398 78.490852,78.051201 
M187.697113,82.443581 
	C184.636688,81.780434 181.576279,81.117294 178.164978,80.378120 
	C178.164978,79.324242 178.388962,77.790977 178.083282,76.371788 
	C177.891479,75.481331 176.904068,74.762238 176.273621,73.966255 
	C175.459213,74.796707 173.956940,75.611397 173.937485,76.460075 
	C173.756454,84.358261 173.830383,92.262299 173.830383,100.100304 
	C185.557266,101.003098 187.891678,100.642319 189.677933,96.861900 
	C191.951294,92.050629 191.938354,87.260933 187.697113,82.443581 
M90.787514,97.672913 
	C94.700844,101.361946 99.644501,102.085197 103.298927,99.503342 
	C107.335037,96.651817 108.475060,91.374931 106.278252,86.079674 
	C104.447502,81.666771 100.926323,80.516693 96.586166,80.951797 
	C92.646721,81.346733 89.955437,83.580238 89.593613,87.433929 
	C89.296738,90.595863 90.068138,93.858086 90.787514,97.672913 
M76.645958,480.243530 
	C73.304161,479.530975 70.209770,479.927612 68.611771,483.301392 
	C66.464058,487.835785 65.951256,492.488098 69.161270,496.885223 
	C71.744789,500.424133 77.699852,500.441528 80.233719,496.932983 
	C83.775032,492.029541 82.399017,484.176697 76.645958,480.243530 
M71.077156,279.612122 
	C69.554535,281.423615 68.031914,283.235138 66.509293,285.046631 
	C66.818275,285.493439 67.127251,285.940216 67.436226,286.387024 
	C70.213058,286.387024 73.003326,286.550934 75.761604,286.324677 
	C77.378281,286.192078 78.943977,285.437836 80.532600,284.963226 
	C78.962570,284.267395 77.392639,283.571381 75.822449,282.875916 
	C75.382782,282.681122 74.942368,282.488098 73.737770,281.957489 
	C75.496140,280.083984 77.449020,278.681549 78.414078,276.778198 
	C79.321892,274.987732 80.177635,271.660461 79.299644,270.798370 
	C77.619614,269.148743 74.719757,268.181549 72.273682,268.068848 
	C70.644524,267.993744 68.892845,269.844513 67.299606,270.978821 
	C67.157547,271.079956 67.780449,272.255524 68.184868,273.277954 
	C69.191856,272.519836 69.880981,271.633759 70.726158,271.444519 
	C72.277824,271.096985 73.921455,271.160095 75.526749,271.052063 
	C75.274376,272.672424 75.344894,274.445160 74.673576,275.867798 
	C74.071892,277.142883 72.653641,278.032654 71.077156,279.612122 
M95.584656,382.628479 
	C95.228416,378.687469 94.442650,374.922150 89.848671,373.878967 
	C85.605629,372.915558 81.701920,375.129486 80.727356,378.748444 
	C79.154930,384.587463 81.078720,390.613037 85.059120,392.158264 
	C85.722992,392.415955 86.510437,392.529327 87.219963,392.468109 
	C93.400375,391.934875 94.412590,390.827271 95.584656,382.628479 
M109.569572,90.438690 
	C109.573586,92.934555 109.376114,95.455521 109.682426,97.913712 
	C109.802193,98.874855 111.053459,99.694992 111.789375,100.579353 
	C112.461365,99.671021 113.694626,98.775681 113.716003,97.852295 
	C113.877678,90.867645 113.874565,83.875885 113.719856,76.890839 
	C113.697037,75.860596 112.604836,74.854027 112.007416,73.836517 
	C111.199173,74.884933 109.767883,75.891174 109.693535,76.989281 
	C109.413170,81.130341 109.574104,85.301285 109.569572,90.438690 
M206.483704,95.142029 
	C206.483154,89.348770 206.613159,83.550301 206.382431,77.766228 
	C206.330292,76.458839 205.023224,75.201508 204.293823,73.921143 
	C203.563202,75.137863 202.245667,76.333580 202.201248,77.574852 
	C201.982361,83.691338 201.963226,89.825157 202.196320,95.940559 
	C202.255371,97.489922 203.497650,98.994186 204.196228,100.519173 
	C204.958588,99.023865 205.720947,97.528564 206.483704,95.142029 
M70.692978,374.219757 
	C69.333153,375.575439 67.973335,376.931122 66.613510,378.286804 
	C66.871956,378.608490 67.130409,378.930206 67.388855,379.251923 
	C68.663094,378.979095 69.937325,378.706299 71.342087,378.405548 
	C71.674469,383.491821 71.981789,388.194550 72.289108,392.897278 
	C73.087715,392.878906 73.886330,392.860535 74.684944,392.842163 
	C76.464539,386.810974 75.195061,380.516602 75.592621,373.912872 
	C73.874954,373.912872 72.606445,373.912872 70.692978,374.219757 
M195.609192,81.093925 
	C195.143341,87.477722 194.677490,93.861526 194.211639,100.245323 
	C194.866440,100.471275 195.521255,100.697220 196.176071,100.923172 
	C196.955154,99.908051 198.351929,98.925064 198.406693,97.872269 
	C198.647430,93.244278 198.618576,88.590553 198.400421,83.959671 
	C198.353409,82.961845 197.116699,82.020065 195.609192,81.093925 
z"/>
<path fill="#A4D5D4" opacity="1.000000" stroke="none" 
	d="
M518.932434,425.000000 
	C518.932434,449.957886 518.932434,474.415741 518.932434,499.149231 
	C509.778503,499.149231 501.033081,499.149231 492.136169,499.149231 
	C492.136169,406.271545 492.136169,313.688843 492.136169,220.857468 
	C501.078888,220.857468 509.828247,220.857468 518.932434,220.857468 
	C518.932434,288.938995 518.932434,356.719482 518.932434,425.000000 
z"/>
<path fill="#A5D7D6" opacity="1.000000" stroke="none" 
	d="
M425.897186,315.004578 
	C425.897186,309.877777 425.897186,305.250092 425.897186,300.327728 
	C434.410645,300.327728 442.483643,300.327728 450.938690,300.327728 
	C450.938690,366.522430 450.938690,432.680939 450.938690,499.131897 
	C442.789978,499.131897 434.700256,499.131897 425.897186,499.131897 
	C425.897186,437.942474 425.897186,376.723114 425.897186,315.004578 
z"/>
<path fill="#4B9886" opacity="1.000000" stroke="none" 
	d="
M208.000000,131.999954 
	C238.647720,131.999954 268.795441,131.999954 299.355042,131.999954 
	C299.355042,137.405975 299.355042,142.463852 299.355042,147.951019 
	C221.104080,147.951019 142.914978,147.951019 64.386650,147.951019 
	C64.386650,142.728546 64.386650,137.675674 64.386650,131.999954 
	C112.284340,131.999954 159.892166,131.999954 208.000000,131.999954 
z"/>
<path fill="#A4D5D4" opacity="1.000000" stroke="none" 
	d="
M319.239868,444.000122 
	C319.239868,462.627350 319.239868,480.754578 319.239868,499.136230 
	C310.141327,499.136230 301.418579,499.136230 292.494568,499.136230 
	C292.494568,459.274139 292.494568,419.720093 292.494568,379.860901 
	C301.288269,379.860901 309.878143,379.860901 319.239868,379.860901 
	C319.239868,401.069824 319.239868,422.284943 319.239868,444.000122 
z"/>
<path fill="#A4D5D4" opacity="1.000000" stroke="none" 
	d="
M368.088104,499.445740 
	C364.655945,499.445679 361.708801,499.445679 358.564636,499.445679 
	C358.564636,470.270660 358.564636,441.707977 358.564636,412.849792 
	C367.390808,412.849792 375.991516,412.849792 384.938965,412.849792 
	C384.938965,441.479767 384.938965,470.184509 384.938965,499.445801 
	C379.453186,499.445801 374.013153,499.445801 368.088104,499.445740 
z"/>
<path fill="#A4D5D4" opacity="1.000000" stroke="none" 
	d="
M174.939880,499.445740 
	C169.345276,499.445648 164.237976,499.445648 158.915619,499.445648 
	C158.915619,490.357574 158.915619,481.778259 158.915619,472.875793 
	C167.718933,472.875793 176.413025,472.875793 185.370987,472.875793 
	C185.370987,481.666443 185.370987,490.231659 185.370987,499.445801 
	C181.971771,499.445801 178.699493,499.445801 174.939880,499.445740 
z"/>
<path fill="#A1D2D1" opacity="1.000000" stroke="none" 
	d="
M235.090698,472.541992 
	C240.707962,472.542053 245.839142,472.542053 251.332611,472.542053 
	C251.332611,481.460663 251.332611,490.014374 251.332611,499.015198 
	C243.302216,499.015198 235.114014,499.015198 226.560974,499.015198 
	C226.560974,490.525360 226.560974,481.972931 226.560974,472.541901 
	C229.141022,472.541901 231.872818,472.541901 235.090698,472.541992 
z"/>
<path fill="#D8D8D8" opacity="1.000000" stroke="none" 
	d="
M78.748039,77.797318 
	C81.164810,75.275398 83.222420,72.745094 88.227859,74.798508 
	C84.016167,77.883308 80.336739,80.578262 76.497643,83.390160 
	C81.135651,89.855583 84.583733,94.662224 88.201683,99.705681 
	C84.130768,101.859123 82.138115,99.710434 80.221657,96.662582 
	C78.495956,93.918098 76.389679,91.412910 74.493889,88.859589 
	C70.323692,90.597099 70.441490,93.709450 70.311417,96.927208 
	C70.262009,98.149612 69.011024,99.323448 68.307693,100.519417 
	C67.544312,99.336037 66.163612,98.174431 66.120995,96.965645 
	C65.898674,90.660095 65.871460,84.336662 66.127365,78.033707 
	C66.184715,76.621178 67.647728,75.265717 68.463615,73.883987 
	C69.115181,75.182701 70.072319,76.420639 70.345535,77.794586 
	C70.739510,79.775833 70.636887,81.855827 70.820839,85.285713 
	C74.057800,82.232544 76.274330,80.141869 78.748039,77.797318 
z"/>
<path fill="#DCDCDC" opacity="1.000000" stroke="none" 
	d="
M188.005646,82.685638 
	C191.938354,87.260933 191.951294,92.050629 189.677933,96.861900 
	C187.891678,100.642319 185.557266,101.003098 173.830383,100.100304 
	C173.830383,92.262299 173.756454,84.358261 173.937485,76.460075 
	C173.956940,75.611397 175.459213,74.796707 176.273621,73.966255 
	C176.904068,74.762238 177.891479,75.481331 178.083282,76.371788 
	C178.388962,77.790977 178.164978,79.324242 178.164978,80.378120 
	C181.576279,81.117294 184.636688,81.780434 188.005646,82.685638 
M184.545334,85.137733 
	C180.860001,82.985107 178.956223,85.561676 178.365311,88.293541 
	C177.666214,91.525642 176.904831,95.611458 181.290100,97.219879 
	C182.377716,97.618797 184.629593,96.658264 185.456482,95.616402 
	C188.037949,92.363777 187.773941,88.871758 184.545334,85.137733 
z"/>
<path fill="#D8D8D8" opacity="1.000000" stroke="none" 
	d="
M134.853851,95.958847 
	C131.095703,101.350601 124.909348,102.725769 120.460785,99.158279 
	C116.383270,95.888329 115.475128,87.757133 119.570496,83.999176 
	C121.670967,82.071770 125.451111,81.073990 128.404251,81.203575 
	C132.138367,81.367424 134.347458,84.380264 134.781662,89.035370 
	C133.402374,90.535919 132.087708,91.765717 130.650879,91.930511 
	C127.714226,92.267296 124.711891,92.031456 121.227264,92.031456 
	C124.077888,98.426392 125.674095,98.748337 130.139664,95.730202 
	C131.182953,95.025055 133.255081,95.842133 134.853851,95.958847 
M122.075989,87.676712 
	C124.696472,88.096939 127.316963,88.517174 130.607819,89.044907 
	C128.100189,83.049988 126.106941,82.833168 122.075989,87.676712 
z"/>
<path fill="#DEDEDE" opacity="1.000000" stroke="none" 
	d="
M243.868195,84.032387 
	C243.998184,88.026131 244.128174,92.019867 244.254501,96.874374 
	C244.508255,98.190071 244.765671,98.644997 245.023102,99.099922 
	C243.973587,99.521713 242.924088,99.943504 241.341370,99.959831 
	C239.976654,99.836754 239.145142,100.119148 238.313629,100.401543 
	C237.715668,100.485817 237.117722,100.570099 235.854034,100.692856 
	C224.109039,100.198265 226.443939,94.888229 231.112488,88.664352 
	C229.981522,88.137238 228.939102,87.651390 227.785934,87.113922 
	C228.333633,85.528580 228.754242,84.311096 229.174866,83.093605 
	C229.459412,83.008270 229.709641,82.863564 230.339752,82.483841 
	C231.180878,81.920486 231.607788,81.532768 232.034698,81.145050 
	C235.261734,81.447319 238.488754,81.749588 242.147385,82.489037 
	C243.008728,83.294937 243.438461,83.663658 243.868195,84.032387 
M232.250198,93.775970 
	C231.133179,96.799370 232.652557,97.901215 235.355469,97.581657 
	C238.564743,97.202217 240.393951,95.570114 239.298569,91.754478 
	C236.981644,92.277992 234.906555,92.746864 232.250198,93.775970 
z"/>
<path fill="#D8D8D8" opacity="1.000000" stroke="none" 
	d="
M90.576767,97.374390 
	C90.068138,93.858086 89.296738,90.595863 89.593613,87.433929 
	C89.955437,83.580238 92.646721,81.346733 96.586166,80.951797 
	C100.926323,80.516693 104.447502,81.666771 106.278252,86.079674 
	C108.475060,91.374931 107.335037,96.651817 103.298927,99.503342 
	C99.644501,102.085197 94.700844,101.361946 90.576767,97.374390 
M95.567940,96.780647 
	C96.336006,97.029816 97.117821,97.527328 97.869789,97.485695 
	C101.359085,97.292488 103.998970,93.963409 102.858711,89.986916 
	C102.226410,87.781860 99.886253,85.287346 97.739037,84.503502 
	C95.339539,83.627571 92.462769,88.292191 93.088226,91.825447 
	C93.362183,93.373024 94.352325,94.793823 95.567940,96.780647 
z"/>
<path fill="#DEDEDE" opacity="1.000000" stroke="none" 
	d="
M144.813583,84.948441 
	C147.265503,83.676834 149.717422,82.405228 152.441650,81.469070 
	C151.051102,84.584732 147.887100,87.498131 148.118851,90.110245 
	C148.387177,93.134346 151.639801,95.895119 153.609146,98.761742 
	C153.691528,98.881645 153.898666,98.915833 154.047684,98.989952 
	C152.191376,101.685806 150.259720,100.838547 148.577484,98.916107 
	C147.400314,97.570877 146.554810,95.935394 145.317810,93.918198 
	C144.387314,93.290619 143.700180,93.174385 143.013062,93.058151 
	C142.581558,95.371460 142.150055,97.684776 141.635162,100.445015 
	C135.364944,100.416908 138.767563,95.437317 137.897369,92.147896 
	C137.887665,90.585022 137.782761,89.742279 137.677856,88.899529 
	C137.745804,84.572510 137.813736,80.245483 138.182190,75.398422 
	C138.654602,74.582932 138.826477,74.287483 138.998367,73.992027 
	C140.047256,74.861153 141.804260,75.594337 142.002457,76.626785 
	C142.461777,79.019234 142.167328,81.556374 142.138641,84.797134 
	C143.003723,85.355759 143.908661,85.152100 144.813583,84.948441 
z"/>
<path fill="#C5C5C5" opacity="1.000000" stroke="none" 
	d="
M76.990555,480.317200 
	C82.399017,484.176697 83.775032,492.029541 80.233719,496.932983 
	C77.699852,500.441528 71.744789,500.424133 69.161270,496.885223 
	C65.951256,492.488098 66.464058,487.835785 68.611771,483.301392 
	C70.209770,479.927612 73.304161,479.530975 76.990555,480.317200 
M77.990646,487.917877 
	C76.720779,486.320892 75.450912,484.723907 74.181061,483.126923 
	C73.116623,484.960358 71.300301,486.739716 71.163712,488.639832 
	C70.958054,491.500824 70.119690,496.109039 74.516731,496.155273 
	C78.877426,496.201111 77.980179,491.814728 77.990646,487.917877 
z"/>
<path fill="#D8D8D8" opacity="1.000000" stroke="none" 
	d="
M261.967529,86.980225 
	C261.541077,87.015358 261.114594,87.050499 260.116760,86.953827 
	C258.875031,86.382301 258.204681,85.942574 257.322632,85.217911 
	C255.378403,84.932983 253.645844,84.932983 251.913300,84.932983 
	C251.841141,85.545349 251.768982,86.157715 251.696823,86.770081 
	C252.766418,87.235764 253.835999,87.701447 255.228729,88.296112 
	C256.013336,88.457069 256.474792,88.489044 257.130219,88.743080 
	C258.241058,89.241112 259.157898,89.517075 260.074768,89.793037 
	C261.173737,91.938408 262.272675,94.083778 262.994385,96.749847 
	C262.390747,97.834259 262.164337,98.397972 261.937927,98.961685 
	C255.341354,102.613167 250.682251,101.641075 247.542389,95.438919 
	C249.559647,95.615013 251.281845,96.439598 253.097641,96.842903 
	C254.605591,97.177826 256.244171,97.178078 257.781067,96.982506 
	C258.274078,96.919762 259.058228,95.244865 258.979553,95.179031 
	C257.929688,94.300087 256.806335,93.467728 255.590775,92.836609 
	C253.269043,91.631165 250.876389,90.562294 248.513168,89.436745 
	C246.910156,84.174210 248.930649,81.124397 254.185532,80.936958 
	C255.488647,80.890480 256.797028,80.991631 258.650269,81.349976 
	C259.720795,81.895348 260.244019,82.115654 260.767242,82.335960 
	C261.237610,82.992981 261.708008,83.650002 262.192261,84.939651 
	C262.126587,86.041595 262.047058,86.510910 261.967529,86.980225 
z"/>
<path fill="#CACACA" opacity="1.000000" stroke="none" 
	d="
M71.336395,279.352264 
	C72.653641,278.032654 74.071892,277.142883 74.673576,275.867798 
	C75.344894,274.445160 75.274376,272.672424 75.526749,271.052063 
	C73.921455,271.160095 72.277824,271.096985 70.726158,271.444519 
	C69.880981,271.633759 69.191856,272.519836 68.184868,273.277954 
	C67.780449,272.255524 67.157547,271.079956 67.299606,270.978821 
	C68.892845,269.844513 70.644524,267.993744 72.273682,268.068848 
	C74.719757,268.181549 77.619614,269.148743 79.299644,270.798370 
	C80.177635,271.660461 79.321892,274.987732 78.414078,276.778198 
	C77.449020,278.681549 75.496140,280.083984 73.737770,281.957489 
	C74.942368,282.488098 75.382782,282.681122 75.822449,282.875916 
	C77.392639,283.571381 78.962570,284.267395 80.532608,284.963257 
	C78.943977,285.437836 77.378281,286.192078 75.761604,286.324677 
	C73.003326,286.550934 70.213058,286.387024 67.436226,286.387024 
	C67.127251,285.940216 66.818275,285.493439 66.509293,285.046631 
	C68.031914,283.235138 69.554535,281.423615 71.336395,279.352264 
z"/>
<path fill="#D1D1D1" opacity="1.000000" stroke="none" 
	d="
M95.606651,383.034180 
	C94.412590,390.827271 93.400375,391.934875 87.219963,392.468109 
	C86.510437,392.529327 85.722992,392.415955 85.059120,392.158264 
	C81.078720,390.613037 79.154930,384.587463 80.727356,378.748444 
	C81.701920,375.129486 85.605629,372.915558 89.848671,373.878967 
	C94.442650,374.922150 95.228416,378.687469 95.606651,383.034180 
M85.115227,378.071686 
	C84.766090,379.158997 83.963982,380.333893 84.154030,381.316986 
	C84.691444,384.097046 85.529640,386.839417 86.551247,389.479828 
	C86.681023,389.815247 89.458229,389.723145 89.568192,389.374603 
	C90.418144,386.680420 91.485123,383.849823 91.367836,381.109314 
	C91.233345,377.966614 89.947685,374.878540 85.115227,378.071686 
z"/>
<path fill="#CACACA" opacity="1.000000" stroke="none" 
	d="
M109.569695,89.949860 
	C109.574104,85.301285 109.413170,81.130341 109.693535,76.989281 
	C109.767883,75.891174 111.199173,74.884933 112.007416,73.836517 
	C112.604836,74.854027 113.697037,75.860596 113.719856,76.890839 
	C113.874565,83.875885 113.877678,90.867645 113.716003,97.852295 
	C113.694626,98.775681 112.461365,99.671021 111.789375,100.579353 
	C111.053459,99.694992 109.802193,98.874855 109.682426,97.913712 
	C109.376114,95.455521 109.573586,92.934555 109.569695,89.949860 
z"/>
<path fill="#D8D8D8" opacity="1.000000" stroke="none" 
	d="
M206.483505,95.587646 
	C205.720947,97.528564 204.958588,99.023865 204.196228,100.519173 
	C203.497650,98.994186 202.255371,97.489922 202.196320,95.940559 
	C201.963226,89.825157 201.982361,83.691338 202.201248,77.574852 
	C202.245667,76.333580 203.563202,75.137863 204.293823,73.921143 
	C205.023224,75.201508 206.330292,76.458839 206.382431,77.766228 
	C206.613159,83.550301 206.483154,89.348770 206.483505,95.587646 
z"/>
<path fill="#D1D1D1" opacity="1.000000" stroke="none" 
	d="
M95.693718,268.374786 
	C98.417938,271.891937 99.190346,275.815033 97.886909,280.736877 
	C97.494499,281.932007 97.351471,282.508301 97.208435,283.084595 
	C96.911354,283.559265 96.614281,284.033966 95.828041,284.730804 
	C94.901077,285.358887 94.463287,285.764801 94.025497,286.170746 
	C91.323608,285.516998 88.621712,284.863251 85.559540,283.670532 
	C84.751564,282.428101 84.303871,281.724640 83.856178,281.021149 
	C84.733696,276.858643 85.611214,272.696167 87.045609,268.301361 
	C88.070122,267.725372 88.537758,267.381714 89.005394,267.038025 
	C90.067749,267.035217 91.130104,267.032379 92.763046,267.326111 
	C94.120331,267.873383 94.907028,268.124084 95.693718,268.374786 
M93.794334,281.909790 
	C94.110847,280.808136 94.844673,279.632019 94.663872,278.619141 
	C94.166412,275.832367 93.379387,273.080322 92.422333,270.416779 
	C92.317940,270.126251 89.499367,270.254486 89.397766,270.607788 
	C88.615570,273.327789 87.707352,276.165344 87.786873,278.939209 
	C87.879356,282.165375 89.080368,285.132568 93.794334,281.909790 
z"/>
<path fill="#E0E0E0" opacity="1.000000" stroke="none" 
	d="
M220.900742,100.522095 
	C220.190643,97.737846 219.429260,94.965416 218.784439,92.166130 
	C218.102341,89.204964 217.531189,86.218239 216.702209,82.895081 
	C216.492859,82.547470 216.634628,82.478500 216.634644,82.478500 
	C217.349960,81.110924 217.959686,79.673073 218.809875,78.395226 
	C219.685013,77.079880 220.794601,75.920517 221.567932,74.977776 
	C223.317291,77.785248 224.692719,79.992599 225.952484,82.901337 
	C225.026474,84.107391 223.501221,84.636658 223.517609,85.112877 
	C223.663574,89.354935 220.788773,94.063530 225.356430,97.743446 
	C225.897247,98.179138 225.538330,99.731636 225.596481,100.766441 
	C225.596481,100.766441 225.253189,100.704010 224.795197,100.676208 
	C223.191711,100.606308 222.046234,100.564201 220.900742,100.522095 
z"/>
<path fill="#292929" opacity="1.000000" stroke="none" 
	d="
M154.328094,98.871994 
	C153.898666,98.915833 153.691528,98.881645 153.609146,98.761742 
	C151.639801,95.895119 148.387177,93.134346 148.118851,90.110245 
	C147.887100,87.498131 151.051102,84.584732 152.827652,81.491257 
	C154.023422,79.489021 155.105469,77.800034 156.633179,76.095078 
	C157.078827,76.079102 157.358917,76.353760 157.266129,76.720734 
	C156.349457,79.018013 155.525574,80.948326 154.632797,83.040054 
	C158.944046,87.244606 156.262131,92.906738 156.883026,98.028473 
	C156.124847,98.270325 155.366684,98.512184 154.328094,98.871994 
z"/>
<path fill="#D1D1D1" opacity="1.000000" stroke="none" 
	d="
M71.015457,374.066315 
	C72.606445,373.912872 73.874954,373.912872 75.592621,373.912872 
	C75.195061,380.516602 76.464539,386.810974 74.684944,392.842163 
	C73.886330,392.860535 73.087715,392.878906 72.289108,392.897278 
	C71.981789,388.194550 71.674469,383.491821 71.342087,378.405548 
	C69.937325,378.706299 68.663094,378.979095 67.388855,379.251923 
	C67.130409,378.930206 66.871956,378.608490 66.613510,378.286804 
	C67.973335,376.931122 69.333153,375.575439 71.015457,374.066315 
z"/>
<path fill="#292929" opacity="1.000000" stroke="none" 
	d="
M166.087006,99.705597 
	C165.479156,100.077950 164.871292,100.450310 164.047516,100.407883 
	C163.875290,99.518074 164.145447,98.850975 163.929398,98.596268 
	C159.122787,92.929596 158.925323,87.764778 162.982666,83.028450 
	C161.705734,80.359665 160.546844,77.937607 159.327423,75.389030 
	C158.785934,75.654411 158.072418,76.004082 157.358917,76.353760 
	C157.358917,76.353760 157.078827,76.079102 156.937668,75.941299 
	C159.276901,72.928123 160.845245,73.127197 162.110092,76.953590 
	C162.615448,78.482414 164.371918,79.597679 165.933868,81.496246 
	C166.234909,87.962730 166.160965,93.834167 166.087006,99.705597 
z"/>
<path fill="#DCDCDC" opacity="1.000000" stroke="none" 
	d="
M157.266129,76.720734 
	C158.072418,76.004082 158.785934,75.654411 159.327423,75.389030 
	C160.546844,77.937607 161.705734,80.359665 162.982666,83.028450 
	C158.925323,87.764778 159.122787,92.929596 163.929398,98.596268 
	C164.145447,98.850975 163.875290,99.518074 163.684265,100.337662 
	C163.536926,100.682228 163.202209,100.626266 162.725037,100.624199 
	C161.515839,100.696205 160.783813,100.770279 160.051804,100.844353 
	C159.085373,100.096962 158.118927,99.349579 157.017761,98.315323 
	C156.262131,92.906738 158.944046,87.244606 154.632797,83.040054 
	C155.525574,80.948326 156.349457,79.018013 157.266129,76.720734 
z"/>
<path fill="#292929" opacity="1.000000" stroke="none" 
	d="
M226.016510,100.833298 
	C225.538330,99.731636 225.897247,98.179138 225.356430,97.743446 
	C220.788773,94.063530 223.663574,89.354935 223.517609,85.112877 
	C223.501221,84.636658 225.026474,84.107391 226.064240,83.273880 
	C227.012344,82.981270 227.733002,83.017487 228.814270,83.073654 
	C228.754242,84.311096 228.333633,85.528580 227.785934,87.113922 
	C228.939102,87.651390 229.981522,88.137238 231.112488,88.664352 
	C226.443939,94.888229 224.109039,100.198265 235.581924,100.824677 
	C234.541489,101.356956 233.098221,102.173401 231.675720,102.138695 
	C229.920303,102.095840 228.182159,101.345032 226.016510,100.833298 
z"/>
<path fill="#E0E0E0" opacity="1.000000" stroke="none" 
	d="
M196.018600,81.073196 
	C197.116699,82.020065 198.353409,82.961845 198.400421,83.959671 
	C198.618576,88.590553 198.647430,93.244278 198.406693,97.872269 
	C198.351929,98.925064 196.955154,99.908051 196.176071,100.923172 
	C195.521255,100.697220 194.866440,100.471275 194.211639,100.245323 
	C194.677490,93.861526 195.143341,87.477722 196.018600,81.073196 
z"/>
<path fill="#D8D8D8" opacity="1.000000" stroke="none" 
	d="
M166.511932,99.828133 
	C166.160965,93.834167 166.234909,87.962730 166.306427,81.634560 
	C168.486069,78.333321 169.667267,80.724907 169.760986,82.287224 
	C170.086929,87.719872 170.013107,93.183411 169.838028,98.627052 
	C169.822861,99.098877 167.947937,99.510880 166.511932,99.828133 
z"/>
<path fill="#E0E0E0" opacity="1.000000" stroke="none" 
	d="
M214.174927,81.787399 
	C214.174927,81.787399 214.133545,82.212013 214.121994,82.644104 
	C214.190506,83.579376 214.270569,84.082558 214.350632,84.585732 
	C214.350632,89.692741 214.350632,94.799744 214.350632,99.906754 
	C213.809204,100.233459 213.267792,100.560165 212.726364,100.886879 
	C211.780060,99.708015 210.095673,98.575630 210.017975,97.342056 
	C209.716431,92.554146 209.925751,87.734062 210.248215,82.342804 
	C211.759323,81.768906 212.967117,81.778152 214.174927,81.787399 
z"/>
<path fill="#3A3A3A" opacity="1.000000" stroke="none" 
	d="
M137.340820,88.908325 
	C137.782761,89.742279 137.887665,90.585022 137.835205,91.713287 
	C136.913208,93.148514 136.148590,94.298225 135.118927,95.703392 
	C133.255081,95.842133 131.182953,95.025055 130.139664,95.730202 
	C125.674095,98.748337 124.077888,98.426392 121.227264,92.031456 
	C124.711891,92.031456 127.714226,92.267296 130.650879,91.930511 
	C132.087708,91.765717 133.402374,90.535919 134.883667,89.395126 
	C135.664597,88.973778 136.334198,88.945450 137.340820,88.908325 
z"/>
<path fill="#3A3A3A" opacity="1.000000" stroke="none" 
	d="
M248.401917,89.856995 
	C250.876389,90.562294 253.269043,91.631165 255.590775,92.836609 
	C256.806335,93.467728 257.929688,94.300087 258.979553,95.179031 
	C259.058228,95.244865 258.274078,96.919762 257.781067,96.982506 
	C256.244171,97.178078 254.605591,97.177826 253.097641,96.842903 
	C251.281845,96.439598 249.559647,95.615013 247.488037,95.112381 
	C247.549667,93.593719 247.920166,91.935478 248.401917,89.856995 
z"/>
<path fill="#3F3F3F" opacity="1.000000" stroke="none" 
	d="
M209.205170,77.887711 
	C210.011169,76.269760 210.490646,73.616440 211.687851,73.238853 
	C214.623032,72.313141 215.100815,74.698486 214.575729,77.510345 
	C212.559692,77.914955 210.882431,77.901329 209.205170,77.887711 
z"/>
<path fill="#292929" opacity="1.000000" stroke="none" 
	d="
M209.168793,78.256454 
	C210.882431,77.901329 212.559692,77.914955 214.527008,77.915649 
	C214.732895,78.892220 214.648743,79.881706 214.369751,81.329292 
	C212.967117,81.778152 211.759323,81.768906 210.248032,81.873642 
	C209.673843,80.866821 209.403137,79.746017 209.168793,78.256454 
z"/>
<path fill="#3A3A3A" opacity="1.000000" stroke="none" 
	d="
M260.067841,89.462524 
	C259.157898,89.517075 258.241058,89.241112 257.172180,88.337799 
	C256.983826,87.171112 256.947510,86.631783 257.067688,85.945854 
	C257.224243,85.799263 257.534302,85.502853 257.534302,85.502853 
	C258.204681,85.942574 258.875031,86.382301 259.797455,86.989334 
	C260.053314,87.815102 260.057129,88.473564 260.067841,89.462524 
z"/>
<path fill="#292929" opacity="1.000000" stroke="none" 
	d="
M220.998459,100.807724 
	C222.046234,100.564201 223.191711,100.606308 224.656494,100.782043 
	C223.832794,104.254639 222.426620,101.847313 220.998459,100.807724 
z"/>
<path fill="#292929" opacity="1.000000" stroke="none" 
	d="
M160.112381,101.163528 
	C160.783813,100.770279 161.515839,100.696205 162.601624,100.740631 
	C162.027924,101.066994 161.100433,101.274857 160.112381,101.163528 
z"/>
<path fill="#3F3F3F" opacity="1.000000" stroke="none" 
	d="
M95.749130,268.057861 
	C94.907028,268.124084 94.120331,267.873383 93.160461,267.364197 
	C93.926369,267.317444 94.865463,267.529205 95.749130,268.057861 
z"/>
<path fill="#3F3F3F" opacity="1.000000" stroke="none" 
	d="
M83.634048,281.238159 
	C84.303871,281.724640 84.751564,282.428101 85.254593,283.449341 
	C84.677261,282.996429 84.044594,282.225800 83.634048,281.238159 
z"/>
<path fill="#292929" opacity="1.000000" stroke="none" 
	d="
M144.500351,84.916855 
	C143.908661,85.152100 143.003723,85.355759 142.200439,85.246765 
	C142.930420,84.917839 143.558762,84.901550 144.500351,84.916855 
z"/>
<path fill="#292929" opacity="1.000000" stroke="none" 
	d="
M231.864105,80.917618 
	C231.607788,81.532768 231.180878,81.920486 230.454132,82.297897 
	C230.667389,81.755127 231.180466,81.222656 231.864105,80.917618 
z"/>
<path fill="#3A3A3A" opacity="1.000000" stroke="none" 
	d="
M138.882721,73.771027 
	C138.826477,74.287483 138.654602,74.582932 138.217468,74.934860 
	C138.223846,74.510895 138.495453,74.030464 138.882721,73.771027 
z"/>
<path fill="#3A3A3A" opacity="1.000000" stroke="none" 
	d="
M260.797516,82.053619 
	C260.244019,82.115654 259.720795,81.895348 259.089417,81.397911 
	C259.596741,81.337608 260.212280,81.554443 260.797516,82.053619 
z"/>
<path fill="#292929" opacity="1.000000" stroke="none" 
	d="
M244.098618,83.843895 
	C243.438461,83.663658 243.008728,83.294937 242.506241,82.638855 
	C243.065353,82.786125 243.697189,83.220764 244.098618,83.843895 
z"/>
<path fill="#3A3A3A" opacity="1.000000" stroke="none" 
	d="
M262.243408,87.004944 
	C262.047058,86.510910 262.126587,86.041595 262.299011,85.227524 
	C262.434387,85.598404 262.476837,86.314034 262.243408,87.004944 
z"/>
<path fill="#3F3F3F" opacity="1.000000" stroke="none" 
	d="
M94.209106,286.356812 
	C94.463287,285.764801 94.901077,285.358887 95.652901,284.950623 
	C95.442192,285.479828 94.917458,286.011353 94.209106,286.356812 
z"/>
<path fill="#3F3F3F" opacity="1.000000" stroke="none" 
	d="
M97.463936,283.028320 
	C97.351471,282.508301 97.494499,281.932007 97.895950,281.187439 
	C98.009392,281.670105 97.864410,282.321075 97.463936,283.028320 
z"/>
<path fill="#3F3F3F" opacity="1.000000" stroke="none" 
	d="
M88.833031,266.841248 
	C88.537758,267.381714 88.070122,267.725372 87.308777,268.046631 
	C87.563606,267.564270 88.112137,267.104370 88.833031,266.841248 
z"/>
<path fill="#292929" opacity="1.000000" stroke="none" 
	d="
M143.190033,93.292801 
	C143.700180,93.174385 144.387314,93.290619 145.059113,93.692612 
	C144.484879,93.828064 143.925934,93.677757 143.190033,93.292801 
z"/>
<path fill="#292929" opacity="1.000000" stroke="none" 
	d="
M238.643494,100.560379 
	C239.145142,100.119148 239.976654,99.836754 240.890686,99.841721 
	C240.306580,100.325790 239.639969,100.522507 238.643494,100.560379 
z"/>
<path fill="#3A3A3A" opacity="1.000000" stroke="none" 
	d="
M262.214325,98.966278 
	C262.164337,98.397972 262.390747,97.834259 262.899170,97.149231 
	C262.951019,97.675575 262.720886,98.323227 262.214325,98.966278 
z"/>
<path fill="#292929" opacity="1.000000" stroke="none" 
	d="
M245.220078,98.990067 
	C244.765671,98.644997 244.508255,98.190071 244.325653,97.327255 
	C244.739334,97.572990 245.078186,98.226601 245.220078,98.990067 
z"/>
<path fill="#292929" opacity="1.000000" stroke="none" 
	d="
M214.841919,84.380875 
	C214.270569,84.082558 214.190506,83.579376 214.212387,82.837326 
	C214.698761,82.538902 215.083176,82.479370 216.051117,82.449173 
	C216.634628,82.478500 216.492859,82.547470 216.514572,82.512634 
	C216.135254,83.043877 215.734238,83.609947 214.841919,84.380875 
z"/>
<path fill="#191919" opacity="1.000000" stroke="none" 
	d="
M184.843231,85.375946 
	C187.773941,88.871758 188.037949,92.363777 185.456482,95.616402 
	C184.629593,96.658264 182.377716,97.618797 181.290100,97.219879 
	C176.904831,95.611458 177.666214,91.525642 178.365311,88.293541 
	C178.956223,85.561676 180.860001,82.985107 184.843231,85.375946 
z"/>
<path fill="#3A3A3A" opacity="1.000000" stroke="none" 
	d="
M122.136337,87.294739 
	C126.106941,82.833168 128.100189,83.049988 130.607819,89.044907 
	C127.316963,88.517174 124.696472,88.096939 122.136337,87.294739 
z"/>
<path fill="#292929" opacity="1.000000" stroke="none" 
	d="
M232.540833,93.495850 
	C234.906555,92.746864 236.981644,92.277992 239.298569,91.754478 
	C240.393951,95.570114 238.564743,97.202217 235.355469,97.581657 
	C232.652557,97.901215 231.133179,96.799370 232.540833,93.495850 
z"/>
<path fill="#191919" opacity="1.000000" stroke="none" 
	d="
M95.292603,96.526413 
	C94.352325,94.793823 93.362183,93.373024 93.088226,91.825447 
	C92.462769,88.292191 95.339539,83.627571 97.739037,84.503502 
	C99.886253,85.287346 102.226410,87.781860 102.858711,89.986916 
	C103.998970,93.963409 101.359085,97.292488 97.869789,97.485695 
	C97.117821,97.527328 96.336006,97.029816 95.292603,96.526413 
z"/>
<path fill="#191919" opacity="1.000000" stroke="none" 
	d="
M78.048676,488.343018 
	C77.980179,491.814728 78.877426,496.201111 74.516731,496.155273 
	C70.119690,496.109039 70.958054,491.500824 71.163712,488.639832 
	C71.300301,486.739716 73.116623,484.960358 74.181053,483.126923 
	C75.450912,484.723907 76.720779,486.320892 78.048676,488.343018 
z"/>
<path fill="#3A3A3A" opacity="1.000000" stroke="none" 
	d="
M254.905579,88.167130 
	C253.835999,87.701447 252.766418,87.235764 251.696823,86.770081 
	C251.768982,86.157715 251.841141,85.545349 251.913300,84.932983 
	C253.645844,84.932983 255.378403,84.932983 257.322632,85.217918 
	C257.534302,85.502853 257.224243,85.799263 256.723785,85.943413 
	C255.784088,86.780754 255.344833,87.473946 254.905579,88.167130 
z"/>
<path fill="#010101" opacity="1.000000" stroke="none" 
	d="
M255.228729,88.296112 
	C255.344833,87.473946 255.784088,86.780754 256.567261,86.090004 
	C256.947510,86.631783 256.983826,87.171112 256.978210,88.115730 
	C256.474792,88.489044 256.013336,88.457069 255.228729,88.296112 
z"/>
<path fill="#1D1D1D" opacity="1.000000" stroke="none" 
	d="
M85.384109,377.802917 
	C89.947685,374.878540 91.233345,377.966614 91.367836,381.109314 
	C91.485123,383.849823 90.418144,386.680420 89.568192,389.374603 
	C89.458229,389.723145 86.681023,389.815247 86.551247,389.479828 
	C85.529640,386.839417 84.691444,384.097046 84.154030,381.316986 
	C83.963982,380.333893 84.766090,379.158997 85.384109,377.802917 
z"/>
<path fill="#1D1D1D" opacity="1.000000" stroke="none" 
	d="
M93.582245,282.220520 
	C89.080368,285.132568 87.879356,282.165375 87.786873,278.939209 
	C87.707352,276.165344 88.615570,273.327789 89.397766,270.607788 
	C89.499367,270.254486 92.317940,270.126251 92.422333,270.416779 
	C93.379387,273.080322 94.166412,275.832367 94.663872,278.619141 
	C94.844673,279.632019 94.110847,280.808136 93.582245,282.220520 
z"/>
</svg>