<svg width="314.161" height="72.51" viewBox="0 0 314.161 72.51" xmlns="http://www.w3.org/2000/svg"><g id="svgGroup" stroke-linecap="round" fill-rule="evenodd" font-size="9pt" stroke="#000" stroke-width="0mm" fill="#ffffff" style="stroke:#000;stroke-width:0mm;fill:#ffffff"><path d="M 71.118 45.874 A 35.367 35.367 0 0 0 72.412 36.28 A 35.632 35.632 0 0 0 71.118 26.661 A 36.367 36.367 0 0 0 67.481 18.018 A 36.147 36.147 0 0 0 61.817 10.694 A 36.147 36.147 0 0 0 54.492 5.03 A 36.367 36.367 0 0 0 45.85 1.392 A 35.632 35.632 0 0 0 36.231 0.098 A 35.367 35.367 0 0 0 26.636 1.392 Q 22.022 2.686 17.993 5.03 A 35.85 35.85 0 0 0 10.645 10.694 Q 7.324 14.014 4.956 18.018 A 35.772 35.772 0 0 0 1.294 26.661 A 35.632 35.632 0 0 0 0 36.28 A 35.367 35.367 0 0 0 1.294 45.874 Q 2.588 50.489 4.956 54.517 A 36.547 36.547 0 0 0 10.645 61.866 A 36.547 36.547 0 0 0 17.993 67.554 A 36.328 36.328 0 0 0 26.636 71.216 A 35.367 35.367 0 0 0 36.231 72.51 A 35.632 35.632 0 0 0 45.85 71.216 Q 50.488 69.922 54.492 67.554 Q 58.496 65.186 61.817 61.866 A 35.85 35.85 0 0 0 67.481 54.517 A 36.94 36.94 0 0 0 71.118 45.874 Z M 58.496 36.28 A 21.657 21.657 0 0 0 56.738 27.613 Q 54.981 23.536 51.978 20.533 Q 48.975 17.53 44.898 15.772 A 21.657 21.657 0 0 0 36.231 14.014 A 21.604 21.604 0 0 0 27.539 15.772 A 22.87 22.87 0 0 0 20.459 20.533 A 22.288 22.288 0 0 0 15.674 27.613 A 21.657 21.657 0 0 0 13.916 36.28 A 21.311 21.311 0 0 0 15.674 44.898 A 22.737 22.737 0 0 0 20.459 51.954 A 22.657 22.657 0 0 0 27.539 56.739 A 21.604 21.604 0 0 0 36.231 58.497 A 21.657 21.657 0 0 0 44.898 56.739 A 22.288 22.288 0 0 0 51.978 51.954 A 22.951 22.951 0 0 0 56.738 44.898 A 21.311 21.311 0 0 0 58.496 36.28 Z" id="0" vector-effect="non-scaling-stroke"/><path d="M 151.074 20.997 L 151.074 70.997 L 137.11 70.997 L 137.11 20.997 A 6.718 6.718 0 0 0 136.632 18.462 A 6.481 6.481 0 0 0 136.548 18.262 A 7.267 7.267 0 0 0 135.034 16.04 A 6.924 6.924 0 0 0 132.813 14.551 A 6.898 6.898 0 0 0 130.261 14.016 A 7.893 7.893 0 0 0 130.078 14.014 A 7.042 7.042 0 0 0 127.766 14.389 A 6.637 6.637 0 0 0 127.344 14.551 Q 126.074 15.088 125.122 16.04 A 6.924 6.924 0 0 0 123.633 18.262 A 6.898 6.898 0 0 0 123.098 20.814 A 7.893 7.893 0 0 0 123.096 20.997 L 123.096 70.997 L 109.082 70.997 L 109.082 20.997 A 7.042 7.042 0 0 0 108.707 18.684 A 6.637 6.637 0 0 0 108.545 18.262 Q 108.008 16.993 107.056 16.04 A 6.924 6.924 0 0 0 104.834 14.551 A 6.898 6.898 0 0 0 102.282 14.016 A 7.893 7.893 0 0 0 102.1 14.014 A 7.042 7.042 0 0 0 99.787 14.389 A 6.637 6.637 0 0 0 99.365 14.551 Q 98.096 15.088 97.144 16.04 A 6.924 6.924 0 0 0 95.654 18.262 A 6.898 6.898 0 0 0 95.119 20.814 A 7.893 7.893 0 0 0 95.117 20.997 L 95.117 70.997 L 81.104 70.997 L 81.104 20.997 A 20.617 20.617 0 0 1 82.739 12.818 Q 84.375 8.985 87.232 6.128 A 21.033 21.033 0 0 1 93.921 1.636 Q 97.754 0 102.1 0 Q 106.006 0 109.619 1.392 A 20.4 20.4 0 0 1 116.113 5.42 A 20.471 20.471 0 0 1 122.583 1.392 Q 126.172 0 130.078 0 A 20.617 20.617 0 0 1 138.257 1.636 Q 142.09 3.272 144.946 6.128 A 21.033 21.033 0 0 1 149.439 12.818 Q 151.074 16.651 151.074 20.997 Z" id="1" vector-effect="non-scaling-stroke"/><path d="M 233.057 20.997 L 233.057 70.997 L 219.092 70.997 L 219.092 20.997 A 6.718 6.718 0 0 0 218.615 18.462 A 6.481 6.481 0 0 0 218.53 18.262 A 7.267 7.267 0 0 0 217.017 16.04 A 6.924 6.924 0 0 0 214.795 14.551 A 6.898 6.898 0 0 0 212.243 14.016 A 7.893 7.893 0 0 0 212.061 14.014 A 7.042 7.042 0 0 0 209.748 14.389 A 6.637 6.637 0 0 0 209.326 14.551 Q 208.057 15.088 207.105 16.04 A 6.924 6.924 0 0 0 205.615 18.262 A 6.898 6.898 0 0 0 205.08 20.814 A 7.893 7.893 0 0 0 205.078 20.997 L 205.078 70.997 L 191.065 70.997 L 191.065 20.997 A 7.042 7.042 0 0 0 190.689 18.684 A 6.637 6.637 0 0 0 190.528 18.262 Q 189.99 16.993 189.038 16.04 A 6.924 6.924 0 0 0 186.817 14.551 A 6.898 6.898 0 0 0 184.265 14.016 A 7.893 7.893 0 0 0 184.082 14.014 A 7.042 7.042 0 0 0 181.77 14.389 A 6.637 6.637 0 0 0 181.348 14.551 Q 180.078 15.088 179.126 16.04 A 6.924 6.924 0 0 0 177.637 18.262 A 6.898 6.898 0 0 0 177.102 20.814 A 7.893 7.893 0 0 0 177.1 20.997 L 177.1 70.997 L 163.086 70.997 L 163.086 20.997 A 20.617 20.617 0 0 1 164.722 12.818 Q 166.358 8.985 169.214 6.128 A 21.033 21.033 0 0 1 175.904 1.636 Q 179.737 0 184.082 0 Q 187.988 0 191.602 1.392 A 20.4 20.4 0 0 1 198.096 5.42 A 20.471 20.471 0 0 1 204.566 1.392 Q 208.154 0 212.061 0 A 20.617 20.617 0 0 1 220.239 1.636 Q 224.072 3.272 226.929 6.128 A 21.033 21.033 0 0 1 231.421 12.818 Q 233.057 16.651 233.057 20.997 Z" id="2" vector-effect="non-scaling-stroke"/><path d="M 312.866 45.874 A 35.367 35.367 0 0 0 314.16 36.28 A 35.632 35.632 0 0 0 312.866 26.661 A 36.367 36.367 0 0 0 309.229 18.018 A 36.147 36.147 0 0 0 303.565 10.694 A 36.147 36.147 0 0 0 296.24 5.03 A 36.367 36.367 0 0 0 287.598 1.392 A 35.632 35.632 0 0 0 277.979 0.098 A 35.367 35.367 0 0 0 268.384 1.392 Q 263.77 2.686 259.741 5.03 A 35.85 35.85 0 0 0 252.393 10.694 Q 249.072 14.014 246.704 18.018 A 35.772 35.772 0 0 0 243.042 26.661 A 35.632 35.632 0 0 0 241.748 36.28 A 35.367 35.367 0 0 0 243.042 45.874 Q 244.336 50.489 246.704 54.517 A 36.547 36.547 0 0 0 252.393 61.866 A 36.547 36.547 0 0 0 259.741 67.554 A 36.328 36.328 0 0 0 268.384 71.216 A 35.367 35.367 0 0 0 277.979 72.51 A 35.632 35.632 0 0 0 287.598 71.216 Q 292.237 69.922 296.24 67.554 Q 300.244 65.186 303.565 61.866 A 35.85 35.85 0 0 0 309.229 54.517 A 36.94 36.94 0 0 0 312.866 45.874 Z M 300.244 36.28 A 21.657 21.657 0 0 0 298.487 27.613 Q 296.729 23.536 293.726 20.533 Q 290.723 17.53 286.646 15.772 A 21.657 21.657 0 0 0 277.979 14.014 A 21.604 21.604 0 0 0 269.287 15.772 A 22.87 22.87 0 0 0 262.207 20.533 A 22.288 22.288 0 0 0 257.422 27.613 A 21.657 21.657 0 0 0 255.664 36.28 A 21.311 21.311 0 0 0 257.422 44.898 A 22.737 22.737 0 0 0 262.207 51.954 A 22.657 22.657 0 0 0 269.287 56.739 A 21.604 21.604 0 0 0 277.979 58.497 A 21.657 21.657 0 0 0 286.646 56.739 A 22.288 22.288 0 0 0 293.726 51.954 A 22.951 22.951 0 0 0 298.487 44.898 A 21.311 21.311 0 0 0 300.244 36.28 Z" id="3" vector-effect="non-scaling-stroke"/></g></svg>
