<svg xmlns="http://www.w3.org/2000/svg" width="256" height="256" viewBox="0 0 100 100"><rect width="100" height="100" rx="20" fill="#00857d"></rect><path fill="#fff" d="M82.59 49.98L82.59 49.98Q82.59 54.46 81.42 58.61Q80.26 62.77 78.15 66.39Q76.04 70.02 73.05 73.01Q70.06 75.99 66.46 78.13Q62.85 80.26 58.68 81.42Q54.50 82.59 50.02 82.59L50.02 82.59Q45.54 82.59 41.39 81.42Q37.23 80.26 33.61 78.13Q29.98 75.99 26.99 73.01Q24.01 70.02 21.88 66.39Q19.74 62.77 18.58 58.61Q17.41 54.46 17.41 49.98L17.41 49.98Q17.41 45.50 18.58 41.32Q19.74 37.15 21.88 33.54Q24.01 29.94 26.99 26.95Q29.98 23.96 33.61 21.85Q37.23 19.74 41.39 18.58Q45.54 17.41 50.02 17.41L50.02 17.41Q54.50 17.41 58.68 18.58Q62.85 19.74 66.46 21.85Q70.06 23.96 73.05 26.95Q76.04 29.94 78.15 33.54Q80.26 37.15 81.42 41.32Q82.59 45.50 82.59 49.98ZM70.06 49.98L70.06 49.98Q70.06 45.85 68.48 42.18Q66.90 38.51 64.19 35.81Q61.49 33.10 57.82 31.52Q54.15 29.94 50.02 29.94L50.02 29.94Q45.85 29.94 42.20 31.52Q38.55 33.10 35.83 35.81Q33.10 38.51 31.52 42.18Q29.94 45.85 29.94 49.98L29.94 49.98Q29.94 54.11 31.52 57.73Q33.10 61.36 35.83 64.08Q38.55 66.81 42.20 68.39Q45.85 69.97 50.02 69.97L50.02 69.97Q54.15 69.97 57.82 68.39Q61.49 66.81 64.19 64.08Q66.90 61.36 68.48 57.73Q70.06 54.11 70.06 49.98Z"></path></svg>